#!OML:ASF E:\inclinewalkrobotboard\Project 1\Capture day 1\Session 1\subject1.ASF
:FULLY-SPECIFIED
:DEGREES
289
root 9.95003 16.7412 8.93316 -168.45 7.61775 179.739
lowerback -4.91558 3.48013 -11.6556
upperback 1.10494 5.66741 -2.56021
thorax 3.08862 2.69682 4.20203
lowerneck -8.58723 0.216029 -3.96977
upperneck 28.8166 -4.72115 10.2973
head 11.0033 -2.40955 3.70297
rclavicle -3.67752e-014 2.22639e-014
rhumerus -15.068 -15.5869 -81.8725
rradius 22.012
rwrist 21.9883
rhand -4.29346 -36.1832
rfingers 7.12502
rthumb 21.4721 -65.0131
lclavicle -3.67752e-014 2.22639e-014
lhumerus -32.9855 22.8907 57.9288
lradius 5.52951
lwrist -39.3479
lhand -25.3253 -17.786
lfingers 7.12502
lthumb 1.19735 12.1904
rfemur 3.38992 12.9176 9.96059
rtibia 13.2505
rfoot -21.7023 -1.71358
rtoes -37.0977
lfemur -24.0387 -6.36456 -4.9669
ltibia 15.0998
lfoot -13.5105 7.8048
ltoes -56.9661
290
root 9.84841 16.8132 8.79819 -167.698 7.98141 179.836
lowerback -5.1787 3.46456 -13.0901
upperback 1.0738 5.86301 -3.03652
thorax 3.10455 2.79625 4.5086
lowerneck -7.87035 -0.201181 -4.36755
upperneck 27.4821 -5.3412 11.4341
head 10.4541 -2.62717 4.09193
rclavicle 4.37326e-014 6.36111e-014
rhumerus -16.5767 -16.9543 -81.4323
rradius 21.9247
rwrist 21.2379
rhand -5.37771 -36.5745
rfingers 7.12502
rthumb 20.4305 -65.5197
lclavicle 4.37326e-014 6.36111e-014
lhumerus -30.5897 21.8913 59.1407
lradius 5.75468
lwrist -39.4714
lhand -24.8911 -15.7677
lfingers 7.12502
lthumb 1.61676 14.2059
rfemur 2.48906 13.1889 9.47429
rtibia 13.5814
rfoot -20.4134 -1.56
rtoes -35.9624
lfemur -24.1253 -7.23654 -5.16768
ltibia 14.8576
lfoot -14.4504 8.24176
ltoes -56.5688
291
root 9.7245 16.8901 8.65817 -166.245 8.27111 180.596
lowerback -6.03207 3.55028 -13.3113
upperback 0.803649 6.16549 -3.45771
thorax 3.27857 2.95924 4.26224
lowerneck -7.02227 -0.577795 -4.78396
upperneck 26.4097 -5.90516 12.3736
head 9.98643 -2.86728 4.42382
rclavicle 5.80451e-014 1.41535e-013
rhumerus -18.3629 -17.7711 -80.9135
rradius 22.045
rwrist 21.4593
rhand -4.85499 -37.142
rfingers 7.12502
rthumb 20.9327 -66.0325
lclavicle 5.80451e-014 1.41535e-013
lhumerus -28.3026 20.4627 60.4529
lradius 6.10938
lwrist -40.3231
lhand -24.6621 -13.8438
lfingers 7.12502
lthumb 1.83788 16.128
rfemur 1.11111 13.2069 9.47778
rtibia 13.3217
rfoot -19.1855 -1.4706
rtoes -35.5758
lfemur -24.8745 -8.41968 -4.56491
ltibia 14.7161
lfoot -15.8817 9.21913
ltoes -55.934
292
root 9.58942 16.9617 8.52218 -164.669 8.32147 181.637
lowerback -6.84831 3.5537 -12.9737
upperback 0.458825 6.27105 -3.7047
thorax 3.41593 3.0293 3.88575
lowerneck -6.54942 -0.842936 -5.30972
upperneck 25.693 -6.29581 13.184
head 9.71491 -3.04121 4.75539
rclavicle -8.74653e-015 6.99722e-014
rhumerus -20.1576 -17.1961 -80.4834
rradius 22.0133
rwrist 21.6255
rhand -4.12975 -35.7686
rfingers 7.12502
rthumb 21.6294 -64.5806
lclavicle -8.74653e-015 6.99722e-014
lhumerus -26.7383 19.077 61.5225
lradius 6.74649
lwrist -41.1247
lhand -25.1035 -14.765
lfingers 7.12502
lthumb 1.41157 15.2101
rfemur -0.213457 12.7569 9.74191
rtibia 12.5824
rfoot -18.8877 -0.948327
rtoes -35.4272
lfemur -25.6505 -9.31601 -3.61822
ltibia 14.283
lfoot -16.8598 10.0303
ltoes -55.3737
293
root 9.46395 17.0254 8.4069 -163.218 8.75411 182.953
lowerback -7.44096 3.63632 -12.5211
upperback 0.147669 6.40339 -3.77292
thorax 3.44918 3.10926 3.61841
lowerneck -6.21465 -0.925182 -5.83497
upperneck 25.072 -6.39507 13.8919
head 9.47379 -3.08435 5.08252
rclavicle 3.57812e-014 -4.77083e-015
rhumerus -21.7982 -15.3273 -80.4356
rradius 22.0484
rwrist 21.3526
rhand -2.37369 -34.7431
rfingers 7.12502
rthumb 23.3149 -63.3513
lclavicle 3.57812e-014 -4.77083e-015
lhumerus -25.6653 17.9664 62.3057
lradius 7.51527
lwrist -41.3791
lhand -26.0136 -19.4323
lfingers 7.12502
lthumb 0.532647 10.5468
rfemur -1.83121 12.2136 10.2227
rtibia 12.1958
rfoot -18.7191 0.0565179
rtoes -33.986
lfemur -25.9822 -9.42805 -2.36908
ltibia 13.493
lfoot -17.4433 10.6799
ltoes -54.8891
294
root 9.34903 17.0857 8.30899 -162.38 9.1879 184.142
lowerback -7.35897 3.69049 -12.2599
upperback 0.0913718 6.41232 -3.71398
thorax 3.35899 3.11799 3.52994
lowerneck -6.25339 -0.964223 -6.02984
upperneck 24.3576 -6.28159 14.2075
head 9.23073 -2.99712 5.22523
rclavicle 1.66979e-014 1.59028e-015
rhumerus -22.9877 -13.0408 -80.6827
rradius 22.0655
rwrist 20.9602
rhand -0.406692 -34.4689
rfingers 7.12502
rthumb 25.2008 -62.8251
lclavicle 1.66979e-014 1.59028e-015
lhumerus -24.821 17.1958 62.903
lradius 8.36591
lwrist -41.1444
lhand -25.0584 -20.186
lfingers 7.12502
lthumb 1.45516 9.78881
rfemur -3.03419 11.9848 10.8008
rtibia 12.1199
rfoot -18.5312 0.647694
rtoes -34.0038
lfemur -25.8827 -9.52486 -1.34421
ltibia 13.0038
lfoot -18.029 11.093
ltoes -54.3363
295
root 9.24016 17.136 8.2272 -162.002 9.85392 184.996
lowerback -6.88227 3.71866 -12.3621
upperback 0.221511 6.37521 -3.62427
thorax 3.21222 3.09546 3.63831
lowerneck -6.14801 -0.919465 -6.13785
upperneck 23.4132 -5.93552 14.2927
head 8.8453 -2.81196 5.28649
rclavicle -3.73715e-014 4.29375e-014
rhumerus -23.6201 -11.3634 -80.8581
rradius 21.8033
rwrist 21.303
rhand 0.411691 -33.7832
rfingers 7.12502
rthumb 25.9846 -62.0267
lclavicle -3.73715e-014 4.29375e-014
lhumerus -24.3068 16.7732 63.3643
lradius 9.46499
lwrist -40.7538
lhand -24.0512 -21.2965
lfingers 7.12502
lthumb 2.42791 8.66948
rfemur -4.0685 12.4489 11.0941
rtibia 12.3093
rfoot -18.3009 0.842345
rtoes -35.2858
lfemur -25.466 -9.837 -0.790886
ltibia 12.7479
lfoot -18.9021 11.6921
ltoes -53.8438
296
root 9.1279 17.17 8.14703 -161.851 10.4489 185.488
lowerback -6.41032 3.65443 -12.6553
upperback 0.449485 6.24886 -3.53995
thorax 3.16888 3.01892 3.84467
lowerneck -6.85122 -0.791395 -5.67658
upperneck 23.1065 -5.47796 13.7355
head 8.79788 -2.53597 5.0419
rclavicle -2.22639e-014 5.24792e-014
rhumerus -24.1633 -10.5469 -80.7552
rradius 21.6066
rwrist 22.1329
rhand 0.203699 -33.1616
rfingers 7.12502
rthumb 25.7855 -61.4342
lclavicle -2.22639e-014 5.24792e-014
lhumerus -24.1199 16.44 63.7322
lradius 10.7853
lwrist -40.6002
lhand -23.1176 -22.6272
lfingers 7.12502
lthumb 3.32954 7.32653
rfemur -4.91584 13.0313 11.0212
rtibia 12.5185
rfoot -18.1734 1.02282
rtoes -35.9897
lfemur -24.9905 -10.2123 -0.774483
ltibia 12.5865
lfoot -19.6983 12.1765
ltoes -53.4312
297
root 9.01177 17.1895 8.05661 -161.843 10.8799 185.61
lowerback -6.08021 3.49007 -13.1593
upperback 0.715753 6.03739 -3.4384
thorax 3.24146 2.88978 4.19345
lowerneck -6.75209 -0.740454 -5.43676
upperneck 22.338 -5.11782 13.3417
head 8.46321 -2.35661 4.8782
rclavicle -1.51076e-014 -8.42847e-014
rhumerus -24.9048 -10.3595 -80.3173
rradius 21.7292
rwrist 22.5521
rhand -0.252658 -33.2689
rfingers 7.12502
rthumb 25.3483 -61.6042
lclavicle -1.51076e-014 -8.42847e-014
lhumerus -23.58 10.9769 66.2708
lradius 12.055
lwrist -35.494
lhand -23.0344 -23.204
lfingers 7.12502
lthumb 3.40988 6.74846
rfemur -5.49918 13.2338 10.5801
rtibia 12.541
rfoot -18.1001 1.11163
rtoes -36.725
lfemur -24.5739 -10.2476 -1.34784
ltibia 12.6395
lfoot -20.0978 12.0803
ltoes -53.0127
298
root 8.89731 17.2036 7.96091 -161.876 11.2996 185.575
lowerback -5.87931 3.32062 -13.7118
upperback 0.92035 5.83912 -3.3393
thorax 3.32055 2.76791 4.57598
lowerneck -6.49603 -0.715361 -5.34241
upperneck 21.7348 -4.91091 13.1537
head 8.18371 -2.26566 4.80267
rclavicle -4.29375e-014 9.70069e-014
rhumerus -25.8538 -11.1282 -79.5294
rradius 21.935
rwrist 22.7143
rhand -0.649474 -33.662
rfingers 7.12502
rthumb 24.9681 -62.0506
lclavicle -4.29375e-014 9.70069e-014
lhumerus -23.2453 6.16383 68.3666
lradius 13.0054
lwrist -31.9147
lhand -23.5678 -23.7669
lfingers 7.12502
lthumb 2.89479 6.19317
rfemur -6.03424 13.212 10.0025
rtibia 12.4327
rfoot -18.1651 0.910937
rtoes -38.0085
lfemur -24.207 -10.0138 -2.15301
ltibia 12.8229
lfoot -20.3011 11.6175
ltoes -52.4129
